<svg width="42" height="50" viewBox="0 0 42 50" fill="none" xmlns="http://www.w3.org/2000/svg">
<rect x="22.3516" width="3.22997" height="15.5039" fill="#212529"/>
<rect x="25.5815" y="3.10083" width="3.22997" height="9.30233" fill="#212529"/>
<rect x="28.8115" y="6.07227" width="3.22997" height="3.22997" fill="#212529"/>
<rect x="10.0776" y="6.07227" width="12.2739" height="3.22997" fill="#212529"/>
<rect x="6.71826" y="9.30225" width="3.35917" height="3.35917" fill="#212529"/>
<rect x="3.35938" y="12.6616" width="3.35917" height="3.35917" fill="#212529"/>
<rect x="3.35938" y="34.7546" width="3.35917" height="3.35917" fill="#212529"/>
<rect y="16.0208" width="3.35917" height="18.7339" fill="#212529"/>
<rect x="19.2505" y="50" width="3.22997" height="15.5039" transform="rotate(-180 19.2505 50)" fill="#212529"/>
<rect x="16.0205" y="46.8992" width="3.22997" height="9.30233" transform="rotate(-180 16.0205 46.8992)" fill="#212529"/>
<rect x="12.7905" y="43.9277" width="3.22997" height="3.22997" transform="rotate(-180 12.7905 43.9277)" fill="#212529"/>
<rect x="31.5244" y="43.9277" width="12.2739" height="3.22997" transform="rotate(-180 31.5244 43.9277)" fill="#212529"/>
<rect x="34.8838" y="40.6978" width="3.35917" height="3.35917" transform="rotate(-180 34.8838 40.6978)" fill="#212529"/>
<rect x="38.2427" y="37.3386" width="3.35917" height="3.35917" transform="rotate(-180 38.2427 37.3386)" fill="#212529"/>
<rect x="38.2427" y="15.2454" width="3.35917" height="3.35917" transform="rotate(-180 38.2427 15.2454)" fill="#212529"/>
<rect x="41.6021" y="33.9792" width="3.35917" height="18.7339" transform="rotate(-180 41.6021 33.9792)" fill="#212529"/>
</svg>
